#!OML:ASF E:\motion texture\Top Level 1\Subject 1\Session 1\male.ASF
:FULLY-SPECIFIED
:DEGREES
576
root -31.2286 18.1879 1.76939 166.02 -66.9868 -156.961
lowerback 1.24597 0.590515 9.55176
upperback -1.80839 0.875358 5.36221
thorax -2.51567 0.193707 0.196425
lowerneck -13.5565 -9.76718 -12.4906
upperneck 9.14096 -11.7954 7.81188
head 6.17889 -5.65056 3.27033
rclavicle -2.69353e-014 -6.83819e-014
rhumerus -14.2108 -6.09389 -76.918
rradius 32.548
rwrist 14.1026
rhand -18.4167 -29.6983
rfingers 7.12502
rthumb 7.86813 300.468
lclavicle -2.69353e-014 -6.83819e-014
lhumerus -39.1111 6.89503 80.265
lradius 46.5375
lwrist -16.6514
lhand -13.5275 19.6943
lfingers 7.12502
lthumb 12.5847 49.2952
rfemur -11.3692 -1.38338 32.9045
rtibia 13.8167
rfoot -7.66427 -6.78878
rtoes 14.6192
lfemur -25.8803 8.43587 -6.49899
ltibia 54.2904
lfoot -2.73692 7.61269
ltoes -16.6881
577
root -31.3378 18.188 1.72218 165.761 -66.9194 -156.65
lowerback 1.1704 0.668631 9.67541
upperback -1.87943 0.977676 5.31048
thorax -2.53812 0.239261 0.0727866
lowerneck -13.4822 -9.79663 -12.5155
upperneck 9.3394 -11.8502 7.79346
head 6.23584 -5.68164 3.26118
rclavicle 8.52786e-014 -1.59028e-015
rhumerus -13.6139 -5.23161 -77.174
rradius 33.7146
rwrist 13.729
rhand -18.6735 -29.6309
rfingers 7.12502
rthumb 7.62029 300.526
lclavicle 8.52786e-014 -1.59028e-015
lhumerus -39.0574 6.6403 80.5795
lradius 47.2397
lwrist -16.5477
lhand -13.5524 19.6147
lfingers 7.12502
lthumb 12.5606 49.2171
rfemur -10.8735 -1.2777 33.0755
rtibia 13.6682
rfoot -7.95153 -6.83045
rtoes 14.3708
lfemur -26.4733 8.52864 -6.39476
ltibia 53.5429
lfoot -3.19209 7.92048
ltoes -16.5077
578
root -31.4476 18.1876 1.67557 165.529 -66.8591 -156.356
lowerback 1.08404 0.747065 9.79282
upperback -1.95633 1.07924 5.25475
thorax -2.56013 0.284347 -0.051261
lowerneck -13.4041 -9.82611 -12.5429
upperneck 9.53014 -11.9056 7.77958
head 6.29026 -5.71296 3.25403
rclavicle -3.13086e-015 -3.89618e-014
rhumerus -13.0629 -4.39922 -77.398
rradius 34.9152
rwrist 13.3934
rhand -18.9226 -29.5513
rfingers 7.12502
rthumb 7.37984 300.597
lclavicle -3.13086e-015 -3.89618e-014
lhumerus -39.0173 6.39982 80.8893
lradius 47.9402
lwrist -16.4453
lhand -13.5784 19.5333
lfingers 7.12502
lthumb 12.5356 49.1373
rfemur -10.3899 -1.174 33.235
rtibia 13.5197
rfoot -8.23586 -6.87574
rtoes 14.115
lfemur -27.0332 8.59936 -6.3012
ltibia 52.6655
lfoot -3.61753 8.21284
ltoes -16.3146
579
root -31.5581 18.1868 1.62952 165.319 -66.8057 -156.073
lowerback 0.988312 0.825894 9.90517
upperback -2.03787 1.1802 5.19526
thorax -2.5812 0.329054 -0.17612
lowerneck -13.3301 -9.8563 -12.5693
upperneck 9.716 -11.9619 7.76779
head 6.34401 -5.7445 3.24719
rclavicle 2.68359e-014 -7.95139e-015
rhumerus -12.5554 -3.59828 -77.5927
rradius 36.1487
rwrist 13.0936
rhand -19.1627 -29.4553
rfingers 7.12502
rthumb 7.14805 300.685
lclavicle 2.68359e-014 -7.95139e-015
lhumerus -38.9875 6.17278 81.1949
lradius 48.6383
lwrist -16.3443
lhand -13.6057 19.4526
lfingers 7.12502
lthumb 12.5093 49.0582
rfemur -9.91895 -1.0706 33.3851
rtibia 13.3724
rfoot -8.51797 -6.92636
rtoes 13.8526
lfemur -27.5599 8.64885 -6.21469
ltibia 51.6626
lfoot -4.00975 8.49002
ltoes -16.122
580
root -31.6693 18.1854 1.58407 165.13 -66.7603 -155.8
lowerback 0.881478 0.904826 10.0131
upperback -2.12338 1.27981 5.13214
thorax -2.59973 0.373059 -0.301921
lowerneck -13.2622 -9.88689 -12.5946
upperneck 9.8977 -12.0184 7.75828
head 6.39761 -5.77587 3.24067
rclavicle 1.61016e-014 -2.06736e-014
rhumerus -12.0888 -2.83198 -77.7609
rradius 37.4114
rwrist 12.833
rhand -19.3902 -29.3468
rfingers 7.12502
rthumb 6.92853 300.787
lclavicle 1.61016e-014 -2.06736e-014
lhumerus -38.9654 5.95715 81.497
lradius 49.3317
lwrist -16.2414
lhand -13.631 19.3769
lfingers 7.12502
lthumb 12.4849 48.9839
rfemur -9.46102 -0.971882 33.5254
rtibia 13.2272
rfoot -8.79813 -6.97844
rtoes 13.5846
lfemur -28.053 8.67636 -6.13494
ltibia 50.539
lfoot -4.36564 8.75066
ltoes -15.9259
581
root -31.7814 18.1834 1.53919 164.962 -66.7202 -155.537
lowerback 0.765401 0.984221 10.1163
upperback -2.21402 1.37886 5.0661
thorax -2.61796 0.41661 -0.427794
lowerneck -13.1954 -9.91807 -12.6196
upperneck 10.0725 -12.0757 7.75065
head 6.44942 -5.8075 3.23465
rclavicle -1.59028e-014 2.46493e-014
rhumerus -11.6646 -2.09815 -77.9048
rradius 38.7017
rwrist 12.6104
rhand -19.6055 -29.2215
rfingers 7.12502
rthumb 6.72069 300.905
lclavicle -1.59028e-014 2.46493e-014
lhumerus -38.9547 5.75326 81.7954
lradius 50.0229
lwrist -16.1369
lhand -13.6554 19.3048
lfingers 7.12502
lthumb 12.4614 48.9133
rfemur -9.01834 -0.876856 33.657
rtibia 13.0881
rfoot -9.07636 -7.02969
rtoes 13.3076
lfemur -28.5148 8.68627 -6.06027
ltibia 49.3068
lfoot -4.69154 8.99712
ltoes -15.7353
582
root -31.8943 18.1807 1.49491 164.811 -66.6862 -155.281
lowerback 0.639415 1.06401 10.217
upperback -2.30826 1.47699 4.99719
thorax -2.6339 0.459593 -0.554797
lowerneck -13.1295 -9.94949 -12.6455
upperneck 10.2389 -12.1333 7.74672
head 6.49906 -5.83905 3.22999
rclavicle 6.6891e-014 3.57812e-014
rhumerus -11.2791 -1.3976 -78.0271
rradius 40.0173
rwrist 12.4245
rhand -19.8079 -29.0841
rfingers 7.12502
rthumb 6.52527 301.036
lclavicle 6.6891e-014 3.57812e-014
lhumerus -38.9527 5.55934 82.091
lradius 50.7111
lwrist -16.0297
lhand -13.6798 19.2369
lfingers 7.12502
lthumb 12.4379 48.8469
rfemur -8.58891 -0.787728 33.7803
rtibia 12.9543
rfoot -9.35206 -7.07833
rtoes 13.0246
lfemur -28.9457 8.67632 -5.98911
ltibia 47.9761
lfoot -4.98841 9.22761
ltoes -15.5544
